<svg xmlns="http://www.w3.org/2000/svg" width="11.143" height="13" viewBox="0 0 11.143 13">
  <path id="download" d="M10.113,37.806,5.818,42.113a.349.349,0,0,1-.493,0L1.03,37.806a.349.349,0,0,1,0-.493l.569-.569a.344.344,0,0,1,.5.006l2.719,2.818v-7.22A.349.349,0,0,1,5.162,32h.813a.349.349,0,0,1,.348.348v7.22L9.042,36.75a.349.349,0,0,1,.5-.006l.569.569A.343.343,0,0,1,10.113,37.806Zm.682,5.685H.348A.349.349,0,0,0,0,43.839v.812A.349.349,0,0,0,.348,45H10.795a.349.349,0,0,0,.348-.348v-.812A.349.349,0,0,0,10.795,43.491Z" transform="translate(0 -32)" fill="#ff9800"/>
</svg>
