<svg xmlns="http://www.w3.org/2000/svg" xmlns:xlink="http://www.w3.org/1999/xlink" width="180" height="63" viewBox="0 0 180 63">
  <defs>
    <clipPath id="clip-path">
      <rect id="Retângulo_122" data-name="Retângulo 122" width="184.301" height="68.191" transform="translate(-2115)"/>
    </clipPath>
    <clipPath id="clip-logo">
      <rect width="180" height="63"/>
    </clipPath>
  </defs>
  <g id="logo" clip-path="url(#clip-logo)">
    <g id="logo-2" data-name="logo" transform="translate(2113 -4)" clip-path="url(#clip-path)">
      <path id="Path_5" data-name="Path 5" d="M12.642,19.855a25.659,25.659,0,0,1-4.691-.393,13.073,13.073,0,0,1-3.623-1.18,6.639,6.639,0,0,1-2.36-1.935,4.4,4.4,0,0,1-.842-2.672,3.962,3.962,0,0,1,.9-2.64A7.143,7.143,0,0,1,4.051,9.35,20.489,20.489,0,0,0,7.421,11.4a10.431,10.431,0,0,0,4.55.871,5.038,5.038,0,0,0,3.764-1.18A4,4,0,0,0,16.86,8.226a3.826,3.826,0,0,0-.988-2.693,4.478,4.478,0,0,0-3.4-1.071A8.1,8.1,0,0,0,9.948,4.8a20.376,20.376,0,0,0-2.3.958A6.911,6.911,0,0,1,3.288,4.265,5.293,5.293,0,0,1,1.687.026q0-.169,0-.421t.06-1.042l.67-8.539A5.911,5.911,0,0,1,3.934-13.8,4.976,4.976,0,0,1,7.7-15.2h16.18a10.247,10.247,0,0,1,.675,1.629,6.707,6.707,0,0,1,.337,2.135A4.033,4.033,0,0,1,23.935-8.4a3.385,3.385,0,0,1-2.415.9H10.732l-.393,5.281Q11.405-2.5,12.5-2.729a14.22,14.22,0,0,1,2.781-.225,13.348,13.348,0,0,1,5.056.871A9.491,9.491,0,0,1,23.849.3a9.5,9.5,0,0,1,2.023,3.539,14.136,14.136,0,0,1,.645,4.326,12.737,12.737,0,0,1-.787,4.438,9.739,9.739,0,0,1-2.471,3.736,12.256,12.256,0,0,1-4.3,2.556,18.477,18.477,0,0,1-6.319.956Z" transform="translate(-2112.324 33.2)" fill="#323232" stroke="rgba(0,0,0,0)" stroke-width="1"/>
      <path id="Path_6" data-name="Path 6" d="M33.4,13.862a4.381,4.381,0,0,1-.618,2.58,6.4,6.4,0,0,1-1.966,1.629,12.445,12.445,0,0,1-1.966.871,21.3,21.3,0,0,1-2.58.731,27.717,27.717,0,0,1-2.949.477,28.216,28.216,0,0,1-3.062.169,25.518,25.518,0,0,1-7.584-1.1,17.259,17.259,0,0,1-6.157-3.306A15.735,15.735,0,0,1,2.39,10.384a18.328,18.328,0,0,1-1.515-7.7A18.261,18.261,0,0,1,2.533-5.351a16.891,16.891,0,0,1,4.382-5.7,18.346,18.346,0,0,1,6.239-3.4,23.543,23.543,0,0,1,7.219-1.123,17.625,17.625,0,0,1,8.455,1.713q3.117,1.713,3.118,4.467a4.367,4.367,0,0,1-.731,2.529,6.012,6.012,0,0,1-1.689,1.682,23.075,23.075,0,0,0-3.511-1.659,13.079,13.079,0,0,0-4.748-.815,10.315,10.315,0,0,0-7.5,2.7A9.922,9.922,0,0,0,10.986,2.51a11.922,11.922,0,0,0,.759,4.469A8.5,8.5,0,0,0,13.8,10.07a8.352,8.352,0,0,0,2.977,1.8,10.807,10.807,0,0,0,3.594.59,9.616,9.616,0,0,0,2.191-.225,5.892,5.892,0,0,0,1.461-.506V6.447H18.009a8.907,8.907,0,0,1-.645-1.629,7.266,7.266,0,0,1-.309-2.135,3.933,3.933,0,0,1,.927-2.921,3.287,3.287,0,0,1,2.387-.9h9.491a3.532,3.532,0,0,1,2.615.928A3.532,3.532,0,0,1,33.4,2.4Z" transform="translate(-2085.669 21.496)" fill="#323232" stroke="rgba(0,0,0,0)" stroke-width="1"/>
      <path id="Path_7" data-name="Path 7" d="M38.96,21.594a6.161,6.161,0,0,1-2.73,1.45,15.863,15.863,0,0,1-4.281.506,14.826,14.826,0,0,1-4.719-.737,6.534,6.534,0,0,1-3.641-3.573L16.916,5.616Q15.9,3.526,15.1,1.672T13.345-2.61l-.4.067q.27,3.641.3,7.415t.034,7.415V22.739a18.742,18.742,0,0,1-2.259.4,22.68,22.68,0,0,1-3,.2,15.254,15.254,0,0,1-2.629-.2A4.027,4.027,0,0,1,3.5,22.334a3.9,3.9,0,0,1-1.146-1.651,7.691,7.691,0,0,1-.4-2.73V-15.755a5.641,5.641,0,0,1,2.9-2.022,12.734,12.734,0,0,1,4.18-.675,14.535,14.535,0,0,1,4.753.775,6.433,6.433,0,0,1,3.6,3.54L24.129-.519q1.014,2.09,1.82,3.944T27.7,7.706l.337-.067Q27.768,4,27.7.358t-.067-7.28V-17.845a18.742,18.742,0,0,1,2.259-.4,22.679,22.679,0,0,1,3-.2,8.087,8.087,0,0,1,4.515,1.045q1.551,1.045,1.551,4.349Zm8.764-33.168a6.194,6.194,0,0,1,1.685-4.584,6.194,6.194,0,0,1,4.584-1.685H76.241a8.07,8.07,0,0,1,.842,1.955,8.719,8.719,0,0,1,.369,2.562,4.934,4.934,0,0,1-1.11,3.639,4.033,4.033,0,0,1-2.929,1.079H59.185v6.266H74.353A8.167,8.167,0,0,1,75.2-.421a8.386,8.386,0,0,1,.369,2.528,5.035,5.035,0,0,1-1.079,3.641,3.917,3.917,0,0,1-2.9,1.079h-12.4v7.079H76.51a8.07,8.07,0,0,1,.842,1.955,8.719,8.719,0,0,1,.369,2.562A5.06,5.06,0,0,1,76.608,22.1a3.962,3.962,0,0,1-2.932,1.112H53.995a6.194,6.194,0,0,1-4.584-1.685,6.194,6.194,0,0,1-1.685-4.584ZM82.78-8.407A8.729,8.729,0,0,1,81.9-10.43a8.9,8.9,0,0,1-.4-2.7,5.1,5.1,0,0,1,1.18-3.778,4.217,4.217,0,0,1,3.068-1.146h29.4a8.729,8.729,0,0,1,.876,2.023,8.9,8.9,0,0,1,.4,2.7,5.1,5.1,0,0,1-1.18,3.778,4.217,4.217,0,0,1-3.068,1.146h-7.483V22.74a18.724,18.724,0,0,1-2.326.4,24.735,24.735,0,0,1-3.133.2,14.041,14.041,0,0,1-2.73-.236,4.85,4.85,0,0,1-1.989-.842A3.642,3.642,0,0,1,93.3,20.583a8.22,8.22,0,0,1-.4-2.832V-8.407Z" transform="translate(-2050.621 24.653)" fill="#ff9800" stroke="rgba(0,0,0,0)" stroke-width="1"/>
      <path id="Path_8" data-name="Path 8" d="M3.554-1.146a2.29,2.29,0,0,0-2.093,1.1v-.5a.5.5,0,0,0-.146-.358.5.5,0,0,0-.358-.145A.5.5,0,0,0,.6-.905a.5.5,0,0,0-.145.357V5.838a.5.5,0,0,0,.5.5.5.5,0,0,0,.5-.5V1.953c0-1.259.534-2.2,2.092-2.2,1.526,0,1.887.85,1.887,2.092v4a.5.5,0,1,0,1.006,0v-4.2C6.448.3,5.977-1.146,3.554-1.146ZM7.8,2.632c0,2.643,1.306,3.791,3.4,3.791a3.5,3.5,0,0,0,2.454-.881.471.471,0,0,0,.173-.362.461.461,0,0,0-.461-.461.44.44,0,0,0-.283.092,2.9,2.9,0,0,1-1.887.676A2.3,2.3,0,0,1,8.823,2.926h4.593c.629,0,.629-.553.629-1.006a2.842,2.842,0,0,0-3-3.068C9-1.146,7.8.207,7.8,2.629Zm5.253-.582H8.823A2.139,2.139,0,0,1,11.041-.234c1.619,0,2.013,1.148,2.013,2.281Zm2.88-2.976H15.32a.461.461,0,0,0-.337.135.461.461,0,0,0-.135.337.461.461,0,0,0,.135.337.461.461,0,0,0,.337.135h.614V4.36a1.817,1.817,0,0,0,1.919,1.982.472.472,0,1,0,0-.944c-.534,0-.912-.362-.912-1.039V.018h1.023A.461.461,0,0,0,18.3-.117a.461.461,0,0,0,.135-.337A.461.461,0,0,0,18.3-.791a.461.461,0,0,0-.337-.135H16.941V-2.577a.507.507,0,0,0-.5-.5.518.518,0,0,0-.5.5ZM25.325,5.98a.5.5,0,0,0,.487.362.491.491,0,0,0,.472-.33L28.6-.328a.617.617,0,0,0,.047-.22A.5.5,0,0,0,28.5-.9a.5.5,0,0,0-.357-.146.491.491,0,0,0-.472.33L25.845,4.485l-1.5-5.206a.476.476,0,0,0-.472-.33.476.476,0,0,0-.472.33L21.91,4.485,20.086-.721a.491.491,0,0,0-.472-.33.5.5,0,0,0-.358.145.5.5,0,0,0-.145.358.617.617,0,0,0,.047.22L21.47,6.011a.491.491,0,0,0,.472.33.5.5,0,0,0,.487-.362L23.877.991Zm7.142-7.126c-2.027,0-3.3,1.2-3.3,3.778s1.274,3.791,3.3,3.791c2.045,0,3.3-1.211,3.3-3.791s-1.259-3.778-3.3-3.778Zm0,6.654c-1.447,0-2.281-.865-2.281-2.879,0-1.982.829-2.863,2.281-2.863s2.281.881,2.281,2.863c0,2.013-.834,2.877-2.281,2.877Zm5.82-6.056a.5.5,0,0,0-.145-.358.5.5,0,0,0-.358-.145.5.5,0,0,0-.358.145.5.5,0,0,0-.145.358V5.838a.5.5,0,1,0,1.006,0V2.315c0-1.447.737-2.454,2.187-2.454a.49.49,0,0,0,.487-.487.49.49,0,0,0-.487-.487A2.272,2.272,0,0,0,38.286.144Zm8.982,6.89a.5.5,0,0,0,.5-.5.452.452,0,0,0-.11-.314l-2.8-3.6,2.58-2.06a.516.516,0,0,0,.2-.409A.5.5,0,0,0,47.5-.906a.5.5,0,0,0-.358-.145.5.5,0,0,0-.346.126L43.084,2.111V-4.481a.5.5,0,0,0-.145-.358.5.5,0,0,0-.358-.145.5.5,0,0,0-.358.145.5.5,0,0,0-.145.358V5.838a.5.5,0,1,0,1.006,0V3.306l.959-.77,2.785,3.57a.546.546,0,0,0,.44.236ZM53.214-.926H52.6a.461.461,0,0,0-.337.135.461.461,0,0,0-.135.337.461.461,0,0,0,.135.337A.461.461,0,0,0,52.6.018h.614V4.36a1.817,1.817,0,0,0,1.919,1.982.472.472,0,1,0,0-.944c-.534,0-.912-.362-.912-1.039V.018h1.023a.461.461,0,0,0,.337-.135.461.461,0,0,0,.135-.337.461.461,0,0,0-.135-.337.461.461,0,0,0-.338-.134H54.22V-2.577a.507.507,0,0,0-.5-.5.518.518,0,0,0-.5.5Zm3.46,3.555c0,2.643,1.306,3.791,3.4,3.791a3.5,3.5,0,0,0,2.454-.881.471.471,0,0,0,.172-.362.461.461,0,0,0-.461-.461.44.44,0,0,0-.283.092,2.9,2.9,0,0,1-1.887.676A2.3,2.3,0,0,1,57.7,2.926H62.29c.629,0,.629-.553.629-1.006a2.842,2.842,0,0,0-3-3.066C57.87-1.146,56.674.207,56.674,2.629Zm5.253-.582H57.7A2.139,2.139,0,0,1,59.915-.234c1.62,0,2.013,1.148,2.013,2.281Zm2.988-7.031a.518.518,0,0,0-.5.5V4.5c0,1.211.582,1.843,1.636,1.843a.472.472,0,0,0,0-.944c-.425,0-.629-.267-.629-.9V-4.481a.507.507,0,0,0-.5-.5Zm2.409,7.613c0,2.643,1.306,3.791,3.4,3.791a3.5,3.5,0,0,0,2.454-.881.471.471,0,0,0,.173-.362.461.461,0,0,0-.461-.461.44.44,0,0,0-.283.092,2.9,2.9,0,0,1-1.887.676,2.3,2.3,0,0,1-2.372-2.559h4.593c.629,0,.629-.553.629-1.006a2.842,2.842,0,0,0-3-3.068C68.519-1.146,67.324.207,67.324,2.629Zm5.253-.582H68.346A2.139,2.139,0,0,1,70.564-.234c1.621,0,2.013,1.148,2.013,2.281Zm2.013.582c0,2.58,1.211,3.791,3.24,3.791a3.586,3.586,0,0,0,2.377-.85.489.489,0,0,0,.2-.393.461.461,0,0,0-.461-.461.47.47,0,0,0-.3.11,2.867,2.867,0,0,1-1.825.676c-1.447,0-2.218-.912-2.218-2.879,0-1.935.77-2.863,2.218-2.863a2.013,2.013,0,0,1,1.7.737A.469.469,0,0,0,79.9.682a.447.447,0,0,0,.461-.461.47.47,0,0,0-.11-.3,2.962,2.962,0,0,0-2.424-1.069c-2.029,0-3.241,1.2-3.241,3.775ZM84.767-1.149c-2.027,0-3.3,1.2-3.3,3.778s1.274,3.791,3.3,3.791c2.045,0,3.3-1.211,3.3-3.791s-1.257-3.775-3.3-3.775Zm0,6.654c-1.447,0-2.281-.865-2.281-2.879,0-1.982.829-2.863,2.281-2.863s2.281.881,2.281,2.863c0,2.016-.832,2.88-2.279,2.88ZM97.431-1.146a2.515,2.515,0,0,0-2.3,1.1,2.757,2.757,0,0,0-2.5-1.1,2.2,2.2,0,0,0-2.045,1.1v-.5a.5.5,0,0,0-.145-.358.5.5,0,0,0-.358-.145.5.5,0,0,0-.358.145.5.5,0,0,0-.145.358V5.838a.5.5,0,0,0,1.006,0V1.953c0-1.321.472-2.2,1.935-2.2,1.542,0,1.935.85,1.935,2.092v4a.5.5,0,0,0,1.006,0v-4.2A1.725,1.725,0,0,1,97.431-.249c1.526,0,1.966.85,1.966,2.092v4a.5.5,0,0,0,1.006,0v-4.2C100.4.3,99.854-1.146,97.431-1.146Z" transform="translate(-2047.992 57.176)" fill="#323232" stroke="rgba(0,0,0,0)" stroke-width="1"/>
    </g>
  </g>
</svg>
