<svg xmlns="http://www.w3.org/2000/svg" xmlns:xlink="http://www.w3.org/1999/xlink" width="529" height="385.947" viewBox="0 0 529 385.947"><defs><linearGradient id="a" x1="0.5" y1="1" x2="0.5" gradientUnits="objectBoundingBox"><stop offset="0" stop-color="gray" stop-opacity="0.251"/><stop offset="0.54" stop-color="gray" stop-opacity="0.122"/><stop offset="1" stop-color="gray" stop-opacity="0.102"/></linearGradient><linearGradient id="b" x1="0.704" y1="1" x2="0.704" y2="0" xlink:href="#a"/></defs><g transform="translate(0.012)"><g transform="translate(-0.012 30.266)" opacity="0.1"><path d="M85.087,140.977c4.932,8.583,2.2,19.724-3.158,28.046S68.951,183.95,63.013,191.89c-11.8,15.841-14.855,40.855.029,53.873,3.206,2.8,7.171,5.024,9.125,8.806,2.7,5.217.7,11.5-1.335,17.031l-.169.455a38.792,38.792,0,0,0,24.884,50.512c11.755,3.622,22.364,9.492,30.217,18.984,6.862,8.3,10.827,18.535,15.353,28.3,8.182,17.645,18.743,34.516,33.336,47.364s33.636,21.363,53.075,20.662c44.4-1.6,77.093-48.355,121.449-50.817,3.2-.179,6.6-.058,9.275,1.7,3.772,2.486,4.927,7.365,6.513,11.605,8.4,22.451,33.689,32.8,56.334,40.662l42.553,14.787c23.114,8.027,47.388,16.175,71.566,12.456S583,444.7,581.954,420.254c-.861-20.082-17.5-37.756-15.324-57.741,1.509-13.81,11.852-25.411,13.583-39.2,1.8-14.347-6.04-28.124-15.068-39.419-25.977-32.514-63-53.945-99.129-74.617-25.449-14.565-51.03-29.187-78.428-39.651C320.046,143.9,245.811,145,173.858,137.984c-12.374-1.209-25.309-2.631-36.649-8.1-8.7-4.2-15.508-13.9-25.058-15.957-7.278-1.567-18.041,1.668-24.4,5.2C76.175,125.619,79.367,131.02,85.087,140.977Z" transform="translate(-52.988 -113.521)" fill="#ff9800"/></g><path d="M611.409,50.93H222.781A13.54,13.54,0,0,0,209.3,64.542V337.847a13.54,13.54,0,0,0,13.481,13.612H611.409a13.54,13.54,0,0,0,13.482-13.612V64.542A13.539,13.539,0,0,0,611.409,50.93Z" transform="translate(-133.727 -50.93)" fill="url(#a)"/><path d="M625.176,110.81v254.7a13.366,13.366,0,0,1-13.365,13.365H226.615a13.365,13.365,0,0,1-13.365-13.365V110.81Z" transform="translate(-135.767 -81.855)" fill="#f6f7f9"/><rect width="167.706" height="4.715" transform="translate(119.407 60.14)" fill="#dde1ec"/><rect width="101.145" height="4.715" transform="translate(207.98 93.679)" fill="#dde1ec"/><rect width="76.634" height="4.715" transform="translate(119.561 93.679)" fill="#dde1ec"/><rect width="34.066" height="4.715" transform="translate(331.664 93.679)" fill="#dde1ec"/><rect width="34.066" height="4.715" transform="translate(331.664 137.702)" fill="#dde1ec"/><rect width="34.066" height="4.715" transform="translate(331.664 181.725)" fill="#dde1ec"/><rect width="34.066" height="4.715" transform="translate(331.664 108.355)" fill="#dde1ec"/><rect width="34.066" height="4.715" transform="translate(390.358 108.355)" fill="#dde1ec"/><rect width="34.066" height="4.715" transform="translate(331.664 123.026)" fill="#dde1ec"/><rect width="34.066" height="4.715" transform="translate(390.358 123.026)" fill="#dde1ec"/><rect width="34.066" height="4.715" transform="translate(390.358 150.279)" fill="#dde1ec"/><rect width="34.066" height="4.715" transform="translate(390.358 164.955)" fill="#dde1ec"/><rect width="34.066" height="4.715" transform="translate(390.358 196.401)" fill="#dde1ec"/><rect width="101.145" height="4.715" transform="translate(207.98 108.355)" fill="#dde1ec"/><rect width="76.634" height="4.715" transform="translate(119.561 108.355)" fill="#dde1ec"/><rect width="101.145" height="4.715" transform="translate(207.98 123.026)" fill="#dde1ec"/><rect width="76.634" height="4.715" transform="translate(119.561 123.026)" fill="#dde1ec"/><rect width="101.145" height="4.715" transform="translate(207.98 137.702)" fill="#dde1ec"/><rect width="76.634" height="4.715" transform="translate(119.561 137.702)" fill="#dde1ec"/><rect width="101.145" height="4.715" transform="translate(207.98 152.378)" fill="#dde1ec"/><rect width="76.634" height="4.715" transform="translate(119.561 152.378)" fill="#dde1ec"/><rect width="101.145" height="4.715" transform="translate(207.98 167.049)" fill="#dde1ec"/><rect width="76.634" height="4.715" transform="translate(119.561 167.049)" fill="#dde1ec"/><rect width="101.145" height="4.715" transform="translate(207.98 181.725)" fill="#dde1ec"/><rect width="76.634" height="4.715" transform="translate(119.561 181.725)" fill="#dde1ec"/><rect width="101.145" height="4.715" transform="translate(207.98 196.401)" fill="#dde1ec"/><rect width="76.634" height="4.715" transform="translate(119.561 196.401)" fill="#dde1ec"/><path d="M625.176,68.361A13.365,13.365,0,0,0,611.81,55H226.615A13.365,13.365,0,0,0,213.25,68.365v15.2H625.176Z" transform="translate(-135.767 -53.032)" fill="#e8eaf1"/><circle cx="5.242" cy="5.242" r="5.242" transform="translate(88.489 10.875)" fill="#ff5252"/><circle cx="5.242" cy="5.242" r="5.242" transform="translate(105.781 10.875)" fill="#ff0"/><circle cx="5.242" cy="5.242" r="5.242" transform="translate(123.078 10.875)" fill="#69f0ae"/><path d="M318.382,259.278v.039l.034.034C318.406,259.322,318.392,259.3,318.382,259.278Zm-29.574,14.507c-.048-.677-.1-1.286-.14-1.809-.034-.367-.068-.7-.1-.967a.088.088,0,0,1,0-.039v-.193a11.123,11.123,0,0,0-1.141,2.273l.077.043.484.276.43.227.387.2a4.988,4.988,0,0,0,.048.677c-.024-.232-.034-.455-.048-.672Zm6.436-27.645h0l.024.043h0a.111.111,0,0,1,0,.034.188.188,0,0,0-.024-.063Z" transform="translate(-174.077 -151.745)" fill="url(#b)"/><path d="M289.764,295.421l-.024.039v-.073a5.3,5.3,0,0,1,.827-1.987s.324,2.152.614,5.377c-.14-.063-.276-.121-.416-.189l-.421-.189c-.073-1.04-.15-1.886-.222-2.466s-.106-.895-.106-.895S289.933,295.17,289.764,295.421Z" transform="translate(-175.27 -176.153)" opacity="0.1"/><ellipse cx="12.181" cy="4.473" rx="12.181" ry="4.473" transform="translate(72.919 264.915)" fill="#cd9494"/><ellipse cx="6.214" cy="2.282" rx="6.214" ry="2.282" transform="translate(78.886 266.608)" opacity="0.05"/><path d="M203.121,606s13.423,7.456,24.361,1c0,0-1.489,25.856-8.951,28.341h-9.937S200.142,617.915,203.121,606Z" transform="translate(-130.207 -337.593)" fill="#ff7361"/><path d="M201.553,489.562c3.419,12.49-11.156,48.07-11.156,48.07s-30.653-23.211-34.071-35.7a23.445,23.445,0,1,1,45.227-12.374Z" transform="translate(-105.936 -268.544)" fill="#ff9800"/><path d="M201.553,489.562c3.419,12.49-11.156,48.07-11.156,48.07s-30.653-23.211-34.071-35.7a23.445,23.445,0,1,1,45.227-12.374Z" transform="translate(-105.936 -268.544)" opacity="0.1"/><path d="M191.45,474.17s19.081,28.805,17.645,64.492" transform="translate(-124.508 -269.51)" fill="none" stroke="#535461" stroke-miterlimit="10" stroke-width="1"/><path d="M244.473,553.958s-17.321-9.415-15.111,25.333c0,0,14.434-.517,19.555-12.292a10.213,10.213,0,0,0-4.188-12.9Z" transform="translate(-143.987 -310.116)" fill="#ff9800"/><path d="M244.966,555.32s-2.234,18.036-15.4,25.275" transform="translate(-144.195 -311.42)" fill="none" stroke="#535461" stroke-miterlimit="10" stroke-width="1"/><path d="M231.892,608.856c-.484,5.948-2.568,24.42-8.81,26.5H214.17c.285.634.459,1,.459,1h9.947c7.452-2.49,8.946-28.356,8.946-28.356A18.1,18.1,0,0,1,231.892,608.856Z" transform="translate(-136.242 -338.626)" opacity="0.05"/><rect width="50.769" height="8.323" transform="translate(207.98 248.005)" fill="#dde1ec"/><rect width="101.145" height="8.323" transform="translate(207.98 232.504)" fill="#dde1ec"/><path d="M796,232.689a4.238,4.238,0,0,0,0-.571c-.174-2.36-2.418-4.067-4.642-4.976s-4.71-1.354-6.678-2.732c-3.327-2.331-4.352-6.688-4.652-10.672-.092-1.238-.131-2.476-.135-3.719s.077-2.616.193-3.922a65.376,65.376,0,0,0,.484-6.581,12.646,12.646,0,0,0-1.16-6.02c-1.973-3.9-6.4-5.89-10.5-7.587a11.052,11.052,0,0,0-10.184-.3,82.191,82.191,0,0,1-8.283,2.737c-1.576.348-3.3.087-4.836.643-3.008,1.1-3.651,3.806-3.6,6.77v.561c-.3-.276-.609-.537-.924-.788l-.184-.145a11.172,11.172,0,0,0-1.03-.74l-.174-.111a17.322,17.322,0,0,0-2.316-1.262l-.121-.053q-.6-.266-1.228-.484l-.077-.029a17.635,17.635,0,0,0-2.64-.7h0a17.587,17.587,0,0,0-15.725,4.942l-3.322,3.385h0c-15.1-3.385-15.778,9.734-15.778,9.734l.111-.024-.039.092a46.592,46.592,0,0,0,1.3,4.913L583.239,334.168,571.45,370.706l6.62-2.36,30.242-10.8L716.6,246.925A202.486,202.486,0,0,1,733.126,260.4s-5.222,2.761-3.288,15.411c2.365,15.474-1.19,37.5-1.19,37.5v14.246l.667-.184c-.082.484-.169.967-.251,1.523a81.273,81.273,0,0,0-.416,21.625c1.789,15.116,8.936,35.754,8.936,35.754a65.236,65.236,0,0,1,3.279,13.08,12.2,12.2,0,0,0,.764,3.361,26.719,26.719,0,0,1,2.089,10.092,71.584,71.584,0,0,0,4.594,25.5c3.022,7.776,4.139,12.331,4.473,14.99-2.142,2.834-4.942,5.924-7.152,6.233-4.168.58-12.215,1.16-6.852,8.138a4.93,4.93,0,0,0,.624.662c-4.072.658-8.549,2.108-4.2,7.766,5.363,6.978,36.939,3.781,36.939,3.781s.2-3.868,0-8.133c2.215-.155,3.583-.295,3.583-.295s.895-16.862-2.979-18.9a8.171,8.171,0,0,0-2.089.513c-.416-2.331-.735-5.227-.933-7.374l1.533-.116v-25.29s-1.789-15.7-8.341-22.674a14.1,14.1,0,0,1-2.142-2.9c.048-2.016.053-4.836.029-8.09a6.711,6.711,0,0,1,.924-1.219s3.573-4.352,15.788-31.977c7.205-16.291,5.6-25.7,3.071-30.677-.484-1.77-1.741-6.823-3.385-16.127a71.394,71.394,0,0,1,.3-23.549s7.737-20.058,11.32-28.2a13.245,13.245,0,0,0,1.006-6.214,5.952,5.952,0,0,0,1.784-2.9l3.67-9.792a7.842,7.842,0,0,0,.716-3.288Zm-49.845-17.63a14.891,14.891,0,0,0,1.33,1.77h0s-.547-.571-1.451-1.489C746.081,215.248,746.12,215.151,746.158,215.059Zm-18.046,20.1,10.1-10.319c3.491,3.191,7.229,6.451,10.353,9.134a29.922,29.922,0,0,1-1.18,4.047,5.492,5.492,0,0,1-5.319-.295C738.62,235.866,732.256,235.315,728.112,235.16Z" transform="translate(-320.757 -119.92)" fill="url(#a)"/><path d="M872.613,210.5s-7.49,4.323-5.184,10.4c0,0,7.78,2.307,10.948,8.07s27.664,26.508,27.664,26.508l17.863-8.951s-6.214-8.3-25.87-14.091c0,0-11.605-12.423-15.624-14.724A86.014,86.014,0,0,1,872.613,210.5Z" transform="translate(-473.387 -133.339)" fill="#febdd5"/><path d="M872.613,210.5s-7.49,4.323-5.184,10.4c0,0,7.78,2.307,10.948,8.07s27.664,26.508,27.664,26.508l17.863-8.951s-6.214-8.3-25.87-14.091c0,0-11.605-12.423-15.624-14.724A86.014,86.014,0,0,1,872.613,210.5Z" transform="translate(-473.387 -133.339)" opacity="0.05"/><path d="M590.442,345.528,720.412,209.47a16.77,16.77,0,0,1,23.694-.542h0a16.77,16.77,0,0,1,.542,23.694L614.7,368.7,579.04,381.756Z" transform="translate(-324.677 -130.133)" fill="#ff9800"/><path d="M737,206.669h0a16.77,16.77,0,0,1,.542,23.694L607.578,366.421l-26.77,9.792L579,381.9l35.657-13.056L744.642,232.834a16.77,16.77,0,0,0-.542-23.694h0a16.692,16.692,0,0,0-9.821-4.55A16.828,16.828,0,0,1,737,206.669Z" transform="translate(-324.657 -130.287)" fill="#fff" opacity="0.1"/><path d="M537.442,445.45,561.7,468.617l-29.255,10.706-6.4,2.34,4.057-12.877Z" transform="translate(-271.677 -230.051)" fill="#efc8c4"/><path d="M583.076,544.63a7.131,7.131,0,0,1,2.5,1,2.842,2.842,0,0,1,1.277,2.785,6.683,6.683,0,0,1-1.006,1.823,5.692,5.692,0,0,0-.421,4.932L579,557.512Z" transform="translate(-324.657 -305.899)" fill="#727a9c"/><path d="M963.772,718.785s.866,12.679,2.307,14.12-12.969,2.306-12.969,2.306l2.016-16.441Z" transform="translate(-517.864 -395.833)" fill="#ffb9b9"/><path d="M963.772,718.785s.866,12.679,2.307,14.12-12.969,2.306-12.969,2.306l2.016-16.441Z" transform="translate(-517.864 -395.833)" opacity="0.05"/><path d="M944.781,734.753s-2.016,0-9.221,3.748c0,0-4.9-.866-6.915-7.78,0,0-6.049,10.372-10.087,10.948s-11.813,1.151-6.63,8.07,35.73,3.748,35.73,3.748S948.529,736.769,944.781,734.753Z" transform="translate(-495.706 -402.004)" fill="#cbcdda"/><path d="M944.781,734.753s-2.016,0-9.221,3.748c0,0-4.9-.866-6.915-7.78,0,0-6.049,10.372-10.087,10.948s-11.813,1.151-6.63,8.07,35.73,3.748,35.73,3.748S948.529,736.769,944.781,734.753Z" transform="translate(-495.706 -402.004)" opacity="0.05"/><path d="M956.461,748.1l-2.016,5.474-13.254-3.748.754-5.435.184-1.31.484-3.627s11.238-2.9,11.238-1.451a22.366,22.366,0,0,0,.74,3.511c.484,1.77,1.04,3.791,1.451,5.121C956.291,747.527,956.461,748.1,956.461,748.1Z" transform="translate(-511.708 -405.557)" fill="#ffb9b9"/><path d="M941.3,531.225a7.871,7.871,0,0,0-.024,8.017,13.958,13.958,0,0,0,2.07,2.872c6.339,6.915,8.07,22.476,8.07,22.476v25.068l-4.323.334-6.915.532-10.4-42.64s-6.049-31.121-3.167-36.6,5.474-39.763,5.474-39.763l2.394-2.476,5.677-5.88H956.6a11.046,11.046,0,0,1,3.2,3.573c2.756,4.565,5.232,14.057-2.331,31.581-11.813,27.374-15.271,31.7-15.271,31.7A6.647,6.647,0,0,0,941.3,531.225Z" transform="translate(-503.781 -263.829)" fill="#4c4c78"/><path d="M941.3,531.225a7.871,7.871,0,0,0-.024,8.017,13.958,13.958,0,0,0,2.07,2.872c6.339,6.915,8.07,22.476,8.07,22.476v25.068l-4.323.334-6.915.532-10.4-42.64s-6.049-31.121-3.167-36.6,5.474-39.763,5.474-39.763l2.394-2.476,5.677-5.88H956.6a11.046,11.046,0,0,1,3.2,3.573c2.756,4.565,5.232,14.057-2.331,31.581-11.813,27.374-15.271,31.7-15.271,31.7A6.647,6.647,0,0,0,941.3,531.225Z" transform="translate(-503.781 -263.829)" opacity="0.05"/><path d="M955.61,741.526l-12.481,1.557.484-3.627s11.238-2.9,11.238-1.451a22.356,22.356,0,0,0,.759,3.52Z" transform="translate(-512.71 -405.558)" opacity="0.1"/><path d="M923.254,489.661s.716,22.684.837,36.939c.024,3.225,0,6.02-.024,8.017a17.77,17.77,0,0,1-.232,3.162c-.866,2.592.866,8.356.866,8.356a83.164,83.164,0,0,1,5.188,35.73v12.679l-13.839,1.731s2.307-1.731-4.033-18.443a72.947,72.947,0,0,1-4.444-25.28,27.048,27.048,0,0,0-2.021-10,12.34,12.34,0,0,1-.716-3.336,66.044,66.044,0,0,0-3.167-12.969s-6.915-20.459-8.646-35.445a82.529,82.529,0,0,1,.4-21.436A53.451,53.451,0,0,1,894.463,464s28.167-17.727,38.805-5.474a13.872,13.872,0,0,1,2.418,4.033,26.614,26.614,0,0,1,1.359,4.487C940.314,483.326,923.254,489.661,923.254,489.661Z" transform="translate(-486.567 -259.204)" fill="#4c4c78"/><circle cx="14.695" cy="14.695" r="14.695" transform="translate(421.126 74.859)" fill="#ffb9b9"/><path d="M936.624,245.616s6.049,17,0,25.933,19.3,6.049,19.3,6.049l9.8-11.813s-11.528,0-12.089-20.169S936.624,245.616,936.624,245.616Z" transform="translate(-508.868 -146.845)" fill="#ffb9b9"/><path d="M944.363,465.465a37.815,37.815,0,0,1-6.422,1.61c-3.588.551-7.819.575-10.295-1.61-1.451-1.3-5.082-1.451-9.424-1.04-9.144.875-21.523,4.289-23.892,4.961a53.521,53.521,0,0,1,1.04-5.363s28.167-17.727,38.805-5.474h6.146a11.043,11.043,0,0,1,3.2,3.573C944.054,464.415,944.363,465.465,944.363,465.465Z" transform="translate(-487.507 -259.214)" opacity="0.1"/><path d="M956.461,755.359l-2.016,5.474-13.254-3.748.754-5.435c2.277,5.039,6.16,5.721,6.16,5.721a47,47,0,0,1,7.93-3.472C956.291,754.783,956.461,755.359,956.461,755.359Z" transform="translate(-511.708 -412.814)" opacity="0.1"/><path d="M937.633,752.033s-2.016,0-9.221,3.748c0,0-4.9-.866-6.915-7.78,0,0-6.049,10.372-10.087,10.948s-11.813,1.141-6.625,8.07,35.73,3.748,35.73,3.748S941.381,754.049,937.633,752.033Z" transform="translate(-492.015 -410.929)" fill="#cbcdda"/><path d="M833.19,231.056s.653-13,15.261-9.647l-3.747,7.026Z" transform="translate(-455.932 -138.687)" fill="#ffb9b9"/><path d="M901.372,266.291s-14.12-2.307-17.867-5.189c0,0-2.9,5.474-8.07,2.592s-17.287-2.592-17.287-2.592a26.087,26.087,0,0,1-12.089-17.867s-2.016-7.49-1.451-9.507c0,0-7.49-7.78-11.238,2.592,1.451,7.2,2.592,6.63,2.307,12.389l4.608,12.679s.29,4.323,8.646,10.087a186.188,186.188,0,0,1,17.867,14.7s-5.043,2.737-3.167,15.271c2.287,15.319-1.151,37.171-1.151,37.171v14.12s28.815-8.356,33.713-4.033,16.712,0,16.712,0a164.074,164.074,0,0,1-3.458-16.712,72.786,72.786,0,0,1,.29-23.341s7.49-19.884,10.948-27.949-2.592-19.018-8.646-23.051-8.3-1.61-8.3-1.61S914.322,263.7,901.372,266.291Z" transform="translate(-456.025 -143.889)" fill="#febdd5"/><path d="M915.091,209.114a5.1,5.1,0,0,0,.3,1.76,5.551,5.551,0,0,0,1.349,1.678,16.794,16.794,0,0,1,4.811,7.534,22.926,22.926,0,0,1,.455,6.093c-.126,8.274-.484,17.2-5.58,23.694a51.679,51.679,0,0,1-6.562,6.32,1.978,1.978,0,0,0-.687.943,1.726,1.726,0,0,0,.213,1.141c1.054,2.191,3.274,3.535,5.377,4.753a6.817,6.817,0,0,0,3.085,1.165c2.621.087,4.352-2.684,6.736-3.772,3.472-1.586,7.365.619,10.812,2.263a38.1,38.1,0,0,0,7.8,2.722c3.69.851,7.858,1.059,10.962-1.1a8.37,8.37,0,0,0,3.414-5.343c.252-1.407.213-3.042,1.277-3.994.551-.484,1.3-.7,1.891-1.132a5.855,5.855,0,0,0,1.75-2.9l3.549-9.7a7.974,7.974,0,0,0,.692-3.259c-.169-2.336-2.326-4.033-4.487-4.932s-4.555-1.339-6.46-2.708c-3.216-2.311-4.212-6.63-4.5-10.58a50.941,50.941,0,0,1,.058-8.148c.353-4.018,1.136-8.3-.653-11.92-1.91-3.868-6.194-5.836-10.155-7.519a13.911,13.911,0,0,0-4.744-1.373,13.526,13.526,0,0,0-5.106,1.078,79.677,79.677,0,0,1-8.012,2.713c-1.523.348-3.2.087-4.666.638C912.61,197.253,915.091,204.767,915.091,209.114Z" transform="translate(-495.164 -123.158)" opacity="0.1"/><path d="M915.086,207.9a5.1,5.1,0,0,0,.3,1.76,5.55,5.55,0,0,0,1.349,1.678,16.794,16.794,0,0,1,4.811,7.534,22.929,22.929,0,0,1,.455,6.093c-.126,8.274-.484,17.2-5.58,23.694a51.676,51.676,0,0,1-6.562,6.32,1.978,1.978,0,0,0-.691.924,1.726,1.726,0,0,0,.213,1.141c1.054,2.191,3.274,3.535,5.377,4.753a6.817,6.817,0,0,0,3.085,1.165c2.621.087,4.352-2.684,6.736-3.772,3.472-1.586,7.365.619,10.812,2.263a38.1,38.1,0,0,0,7.8,2.722c3.69.851,7.858,1.059,10.962-1.1a8.37,8.37,0,0,0,3.414-5.343c.252-1.407.213-3.042,1.277-3.994.551-.484,1.3-.7,1.891-1.132a5.855,5.855,0,0,0,1.75-2.9l3.549-9.7a7.971,7.971,0,0,0,.691-3.259c-.169-2.336-2.326-4.033-4.487-4.932s-4.555-1.339-6.46-2.708c-3.216-2.311-4.212-6.63-4.5-10.58a50.927,50.927,0,0,1,.058-8.148c.353-4.018,1.136-8.3-.653-11.92-1.91-3.868-6.194-5.836-10.155-7.519a13.912,13.912,0,0,0-4.744-1.373,13.525,13.525,0,0,0-5.106,1.078,79.669,79.669,0,0,1-8.013,2.713c-1.523.348-3.2.087-4.666.638C912.6,196.056,915.086,203.556,915.086,207.9Z" transform="translate(-495.159 -122.522)" fill="#b96b6b"/><path d="M897.41,387.223s2.3-.546,13.825-2.287,31.7,2.307,31.7,2.307" transform="translate(-489.098 -223.201)" opacity="0.05"/></g></svg>