<svg xmlns="http://www.w3.org/2000/svg" width="16" height="12" viewBox="0 0 16 12">
  <path id="barcode" d="M0,76V64H.563V76Zm.839-.009V64h.286V75.991Zm.848,0V64h.277V75.991Zm1.4,0V64h.277V75.991Zm1.125,0V64h.554V75.991Zm1.4,0V64h.277V75.991Zm.563,0V64h.277V75.991Zm.563,0V64h.277V75.991Zm1.116,0V64H8.42V75.991Zm1.4,0V64h.562V75.991Zm1.125,0V64h.563V75.991Zm1.125,0V64h.563V75.991Zm.839,0V64h.563V75.991Zm1.411,0V64H14.6V75.991Zm1.116,0V64h.286V75.991h-.286Zm.563.009V64H16V76Z" transform="translate(0 -64)" fill="#ff9800"/>
</svg>
