<svg width="83" height="82" xmlns="http://www.w3.org/2000/svg">
 <!-- Created with Method Draw - http://github.com/duopixel/Method-Draw/ -->

 <g>
  <title>background</title>
  <rect fill="none" id="canvas_background" height="84" width="85" y="-1" x="-1"/>
  <g display="none" overflow="visible" y="0" x="0" height="100%" width="100%" id="canvasGrid">
   <rect fill="url(#gridpattern)" stroke-width="0" y="0" x="0" height="100%" width="100%"/>
  </g>
 </g>
 <g>
  <title>Layer 1</title>
  <g id="svg_23">
   <path id="svg_5" fill="#ff9800" d="m61.59229,45.88281c-13.51929,0 -24.4751,-10.98633 -24.4751,-24.52087c0,-3.43323 0.73242,-6.68335 1.9989,-9.65881l-26.41296,0c-5.38635,0 -9.76563,4.37927 -9.76563,9.76563l0,34.17969c0,5.38635 4.37927,9.76563 9.76563,9.76563l4.88281,0l0,12.20703c0,0.94604 0.54932,1.80054 1.40381,2.21252c0.32043,0.15259 0.68665,0.22888 1.0376,0.22888c0.56458,0 1.11389,-0.18311 1.5564,-0.56458l16.90674,-14.08386l23.04077,0c5.38635,0 9.76563,-4.37927 9.76563,-9.76563l0,-11.8103c-2.97546,1.297 -6.2561,2.04468 -9.70459,2.04468z"/>
   <circle transform="matrix(0.152587890625,0,0,0.152587890625,0,0) " id="svg_6" fill="#F44336" r="128" cy="140.6976" cx="403.2512"/>
   <path id="svg_7" fill="#FAFAFA" d="m63.97266,31.23438c-1.34277,0 -2.44141,-1.09863 -2.44141,-2.44141l0,-12.20703l-2.44141,0c-1.34277,0 -2.44141,-1.09863 -2.44141,-2.44141s1.09863,-2.44141 2.44141,-2.44141l4.88281,0c1.34277,0 2.44141,1.09863 2.44141,2.44141l0,14.64844c0,1.34277 -1.09863,2.44141 -2.44141,2.44141z"/>
   <g transform="matrix(0.152587890625,0,0,0.152587890625,0,0) " id="svg_8"/>
   <g transform="matrix(0.152587890625,0,0,0.152587890625,0,0) " id="svg_9"/>
   <g transform="matrix(0.152587890625,0,0,0.152587890625,0,0) " id="svg_10"/>
   <g transform="matrix(0.152587890625,0,0,0.152587890625,0,0) " id="svg_11"/>
   <g transform="matrix(0.152587890625,0,0,0.152587890625,0,0) " id="svg_12"/>
   <g transform="matrix(0.152587890625,0,0,0.152587890625,0,0) " id="svg_13"/>
   <g transform="matrix(0.152587890625,0,0,0.152587890625,0,0) " id="svg_14"/>
   <g transform="matrix(0.152587890625,0,0,0.152587890625,0,0) " id="svg_15"/>
   <g transform="matrix(0.152587890625,0,0,0.152587890625,0,0) " id="svg_16"/>
   <g transform="matrix(0.152587890625,0,0,0.152587890625,0,0) " id="svg_17"/>
   <g transform="matrix(0.152587890625,0,0,0.152587890625,0,0) " id="svg_18"/>
   <g transform="matrix(0.152587890625,0,0,0.152587890625,0,0) " id="svg_19"/>
   <g transform="matrix(0.152587890625,0,0,0.152587890625,0,0) " id="svg_20"/>
   <g transform="matrix(0.152587890625,0,0,0.152587890625,0,0) " id="svg_21"/>
   <g transform="matrix(0.152587890625,0,0,0.152587890625,0,0) " id="svg_22"/>
  </g>
 </g>
</svg>